# xmcd
#
# Track frame offsets: 
#        150
#        29139
#        59774
#        92424
#        116592
#        138950
#        153076
#        183239
#        204414
#        226932
#        261423
#        272252
#
# Disc length: 3870 seconds
#
# Revision: 0
# Processed by: cddbd v1.5.2PL0 Copyright (c) Steve Scherf et al.
# Submitted via: ExactAudioCopy v0.99pb5
#
DISCID=a00f1c0c
DTITLE=Joe Bonamassa - The Ballad Of John Henry
DYEAR=2009
DGENRE=Blues
TTITLE0=1. The Ballad Of John Henry
TTITLE1=2. Stop!
TTITLE2=3. Last Kiss
TTITLE3=4. Jockey Full Of Bourbon
TTITLE4=5. Story Of A Quarryman
TTITLE5=6. Lonesome Road Blues
TTITLE6=7. Happier Times
TTITLE7=8. Feelin' Good
TTITLE8=9. Funkier Than A Mosquito's Tweeter
TTITLE9=10. The Great Flood
TTITLE10=11. From The Valley
TTITLE11=12. As The Crow Flies
EXTD=
EXTT0=
EXTT1=
EXTT2=
EXTT3=
EXTT4=
EXTT5=
EXTT6=
EXTT7=
EXTT8=
EXTT9=
EXTT10=
EXTT11=
PLAYORDER=
